<?xml version="1.0" encoding="UTF-8" standalone="no"?>
<!DOCTYPE svg PUBLIC "-//W3C//DTD SVG 1.1//EN" "http://www.w3.org/Graphics/SVG/1.1/DTD/svg11.dtd">
<svg width="64" height="64" viewBox="0 0 48 48" version="1.1" xmlns="http://www.w3.org/2000/svg" xmlns:xlink="http://www.w3.org/1999/xlink" xml:space="preserve" xmlns:serif="http://www.serif.com/" style="fill-rule:evenodd;clip-rule:evenodd;stroke-linecap:round;stroke-linejoin:round;stroke-miterlimit:1.5;">
    <circle cx="24" cy="24" r="24" style="fill:#bd1f2d;stroke:#fff;stroke-width:1px;"/>
    <g>
        <path d="M14.965,21.717l3.864,-0.597l-4.274,-12.469l-4.275,-0l-4.443,12.936l3.696,-0l0.654,-2.166l4.05,0l0.728,2.296Zm-2.762,-9.258l1.176,4.069l-2.39,0l1.214,-4.069Z" style="fill:#0c2340;fill-rule:nonzero;stroke:#fff;stroke-width:2px;stroke-linecap:butt;stroke-miterlimit:2;"/>
        <path d="M29.171,17.536c-0,-2.109 -1.214,-3.136 -4.144,-4.107c-1.456,-0.485 -1.755,-0.746 -1.755,-1.25c-0,-0.448 0.373,-0.71 1.139,-0.71c0.97,0 2.296,0.374 3.64,1.102l0.56,-3.099c-1.27,-0.597 -2.408,-0.915 -4.275,-0.915c-2.539,0 -4.611,1.326 -4.611,3.976c0,2.259 1.195,3.118 3.827,4.051c1.755,0.616 2.072,0.877 2.072,1.419c0,0.56 -0.485,0.821 -1.232,0.821c-1.288,0 -2.875,-0.485 -4.387,-1.232l-0.56,3.117c1.475,0.635 3.006,1.027 4.891,1.027c2.613,0 4.835,-1.157 4.835,-4.2Z" style="fill:#0c2340;fill-rule:nonzero;stroke:#fff;stroke-width:2px;stroke-linecap:butt;stroke-miterlimit:2;"/>
        <path d="M42.163,21.139l-4.219,-6.44l4.181,-5.992l-4.312,-0l-3.378,5.394l-0,-5.394l-3.827,-0l-0,12.88l3.827,-0l-0,-5.768l3.565,5.898l4.163,-0.578Z" style="fill:#0c2340;fill-rule:nonzero;stroke:#fff;stroke-width:2px;stroke-linecap:butt;stroke-miterlimit:2;"/>
        <path d="M14.965,21.717l3.864,-0.597l-4.274,-12.469l-4.275,-0l-4.443,12.936l3.696,-0l0.654,-2.166l4.05,0l0.728,2.296Zm-2.762,-9.258l1.176,4.069l-2.39,0l1.214,-4.069Z" style="fill:#0c2340;fill-rule:nonzero;"/>
        <path d="M29.171,17.536c-0,-2.109 -1.214,-3.136 -4.144,-4.107c-1.456,-0.485 -1.755,-0.746 -1.755,-1.25c-0,-0.448 0.373,-0.71 1.139,-0.71c0.97,0 2.296,0.374 3.64,1.102l0.56,-3.099c-1.27,-0.597 -2.408,-0.915 -4.275,-0.915c-2.539,0 -4.611,1.326 -4.611,3.976c0,2.259 1.195,3.118 3.827,4.051c1.755,0.616 2.072,0.877 2.072,1.419c0,0.56 -0.485,0.821 -1.232,0.821c-1.288,0 -2.875,-0.485 -4.387,-1.232l-0.56,3.117c1.475,0.635 3.006,1.027 4.891,1.027c2.613,0 4.835,-1.157 4.835,-4.2Z" style="fill:#0c2340;fill-rule:nonzero;"/>
        <path d="M42.163,21.139l-4.219,-6.44l4.181,-5.992l-4.312,-0l-3.378,5.394l-0,-5.394l-3.827,-0l-0,12.88l3.827,-0l-0,-5.768l3.565,5.898l4.163,-0.578Z" style="fill:#0c2340;fill-rule:nonzero;"/>
    </g>
    <g>
        <path d="M14.219,33.979c-0,-2.11 -1.214,-3.136 -4.144,-4.107c-1.456,-0.485 -1.755,-0.747 -1.755,-1.251c0,-0.448 0.373,-0.709 1.139,-0.709c0.97,0 2.296,0.373 3.64,1.101l0.56,-3.098c-1.27,-0.598 -2.408,-0.915 -4.275,-0.915c-2.539,0 -4.611,1.325 -4.611,3.976c0,2.259 1.195,3.117 3.827,4.051c1.755,0.616 2.072,0.877 2.072,1.418c0,0.56 -0.485,0.822 -1.232,0.822c-1.288,-0 -2.875,-0.486 -4.387,-1.232l-0.56,3.117c1.475,0.635 3.006,1.027 4.891,1.027c2.613,-0 4.835,-1.158 4.835,-4.2Z" style="fill:#0c2340;fill-rule:nonzero;stroke:#fff;stroke-width:2px;stroke-linecap:butt;stroke-miterlimit:2;"/>
        <path d="M23.589,38.16l3.864,-0.597l-4.274,-12.47l-4.275,0l-4.443,12.936l3.696,0l0.654,-2.165l4.05,-0l0.728,2.296Zm-2.762,-9.259l1.176,4.07l-2.39,-0l1.214,-4.07Z" style="fill:#0c2340;fill-rule:nonzero;stroke:#fff;stroke-width:2px;stroke-linecap:butt;stroke-miterlimit:2;"/>
        <path d="M43.507,38.029l-0.915,-12.88l-4.816,0l-1.867,8.139l-1.866,-8.139l-4.947,0l-0.915,12.88l3.286,0l0.448,-7.858l1.754,7.858l3.715,0l1.736,-7.858l0.467,7.858l3.92,0Z" style="fill:#0c2340;fill-rule:nonzero;stroke:#fff;stroke-width:2px;stroke-linecap:butt;stroke-miterlimit:2;"/>
        <path d="M14.219,33.979c-0,-2.11 -1.214,-3.136 -4.144,-4.107c-1.456,-0.485 -1.755,-0.747 -1.755,-1.251c0,-0.448 0.373,-0.709 1.139,-0.709c0.97,0 2.296,0.373 3.64,1.101l0.56,-3.098c-1.27,-0.598 -2.408,-0.915 -4.275,-0.915c-2.539,0 -4.611,1.325 -4.611,3.976c0,2.259 1.195,3.117 3.827,4.051c1.755,0.616 2.072,0.877 2.072,1.418c0,0.56 -0.485,0.822 -1.232,0.822c-1.288,-0 -2.875,-0.486 -4.387,-1.232l-0.56,3.117c1.475,0.635 3.006,1.027 4.891,1.027c2.613,-0 4.835,-1.158 4.835,-4.2Z" style="fill:#0c2340;fill-rule:nonzero;"/>
        <path d="M23.589,38.16l3.864,-0.597l-4.274,-12.47l-4.275,0l-4.443,12.936l3.696,0l0.654,-2.165l4.05,-0l0.728,2.296Zm-2.762,-9.259l1.176,4.07l-2.39,-0l1.214,-4.07Z" style="fill:#0c2340;fill-rule:nonzero;"/>
        <path d="M43.507,38.029l-0.915,-12.88l-4.816,0l-1.867,8.139l-1.866,-8.139l-4.947,0l-0.915,12.88l3.286,0l0.448,-7.858l1.754,7.858l3.715,0l1.736,-7.858l0.467,7.858l3.92,0Z" style="fill:#0c2340;fill-rule:nonzero;"/>
    </g>
</svg>
