<svg width="128" height="128" viewBox="0 0 192 192" version="1.1" xmlns="http://www.w3.org/2000/svg">
<circle id="BG" cx="96" cy="96" r="96" fill="#0c2340"/>
<path id="Blue" fill="#0c2340" d="M173.385,55.907c-0.156,-4.123 -2.192,-10.074 -3.601,-12.579c-1.253,-1.932 -2.506,-3.445 -3.602,-4.855c-1.096,-1.252 -3.445,-4.958 -3.602,-5.689c0,-0.835 0.575,-2.61 0.575,-2.61c-0,-0 -1.932,-1.514 -3.759,-2.506c-4.019,-2.505 -9.552,-3.601 -14.354,-3.862c-1.514,-0.992 -2.766,-1.357 -4.28,-1.775c-0.992,-0.261 -2.349,-0.156 -3.602,-0.156c-0.835,-0 -1.67,-0 -2.505,0.156c-0.836,0 -1.514,0.157 -2.349,0.157c-1.096,-0 -1.932,-0.157 -2.767,-0.261c-0.574,-0.157 -1.096,-0.261 -1.67,-0.418c-1.253,-0.47 -6.89,-1.566 -6.89,-1.566c-0,0 -2.61,3.758 -3.758,4.855c-0.679,0.678 -1.253,1.357 -1.932,1.774c-0.417,0.261 -0.835,0.574 -1.357,0.992c-1.096,0.679 -4.28,1.931 -5.95,2.506c1.096,2.609 2.923,4.958 4.019,6.211c0.574,0.574 1.096,1.67 1.514,2.192c0.678,0.835 1.357,2.349 1.357,2.349c-0,0 -1.096,2.088 -2.349,3.758c-0.679,0.836 -1.253,1.671 -1.931,2.506c-1.932,2.506 -3.863,4.854 -4.959,8.143c-1.253,3.862 -2.088,5.95 -4.855,8.56c-1.252,1.253 -2.348,2.506 -3.34,3.602c-2.349,2.505 -4.28,4.698 -7.621,6.629c-4.124,2.505 -8.56,4.854 -12.736,7.047c-1.358,0.835 -2.767,1.513 -4.124,2.348c-2.61,1.514 -3.34,1.514 -5.95,1.671c-2.767,0.156 -7.308,0.835 -10.388,2.088c0,-0 -0.574,4.28 -0.991,6.107c-0.157,0.678 -0.262,1.253 -0.418,1.931c-0.418,1.357 -1.096,2.505 -1.931,3.602c-0.679,0.992 -1.358,2.088 -2.088,3.445c-1.357,2.923 -2.193,4.959 -2.767,8.299c-0.261,1.253 -0.417,2.506 -0.678,3.602c-0.418,1.774 -0.679,4.959 -1.096,7.046c-0.679,4.281 -1.097,8.717 -2.61,12.319c-0.574,1.096 -1.514,2.349 -2.61,3.758c-1.357,1.671 -2.767,2.923 -3.341,4.855l-2.349,9.134c-0.156,0.418 -0.417,1.253 -0.678,2.088c-1.514,4.541 -2.193,12.319 -2.193,12.319l21.558,-0c0,-0 -0.261,-8.143 -1.253,-10.805c-0.417,-0.992 -0.835,-2.088 -0.991,-3.027c-0.992,-4.855 0.991,-7.047 5.95,-10.231c7.308,-4.541 10.074,-9.97 11.327,-18.113c1.253,1.253 1.775,2.61 2.088,4.019c0.261,1.775 0.156,3.759 -0.574,5.69c-0.418,1.357 -1.097,2.61 -1.932,4.124c-0.991,1.67 -1.931,3.445 -2.349,5.376c-0.574,2.088 -2.088,4.437 -2.088,6.472c0,1.096 0,2.193 -0.156,3.184c-0,0.418 -0.157,1.253 -0.261,2.088c-0.835,4.855 -1.096,11.223 -1.096,11.223l21.61,-0c-0,-0 -0.157,-8.874 -1.932,-13.154c-0.678,-1.67 -0.678,-3.341 -0.835,-4.437c-0.574,-4.541 1.775,-7.307 5.377,-10.387c0.156,3.184 2.087,7.464 2.192,9.656c0.261,3.028 -1.932,8.3 -1.932,8.3l-0.574,9.656l5.377,0c-0,0 18.947,0.157 18.947,0l-0.156,-6.472c-0.157,-0.261 -1.096,-3.028 -1.253,-3.341c-0.835,-2.349 -1.357,-2.61 -1.514,-5.115c0,-0.992 -0.156,-1.775 -0.261,-2.767c-0.156,-1.096 -0.261,-2.087 -0.261,-3.027c0,-0.574 0.992,-5.533 0.992,-5.533c0,0 4.124,-0.992 6.107,-0.992c0.992,0 17.278,-3.758 21.453,-4.541c0,2.349 -0.156,1.096 0,3.445c0.157,2.506 0.261,6.629 0.261,9.135c0,1.67 -1.67,10.492 -1.67,10.492c0,-0 1.357,0.417 1.931,0.417c0.157,1.67 -0.417,8.456 -0.417,8.456l23.228,-0c0.261,-4.959 -2.193,-11.901 -2.193,-11.901c0,0 -4.698,-3.027 -5.115,-4.124c-0.418,-1.513 -1.096,-2.61 -0.992,-4.019c1.096,-4.28 2.61,-8.299 4.959,-13.415c0.157,-0.417 0.418,-0.835 0.574,-1.357c1.096,-3.34 1.931,-8.038 2.506,-13.415c0.417,-4.123 1.252,-7.881 2.088,-12.005c1.096,-5.376 1.252,-6.89 2.348,-13.989c-0.261,-3.027 -0.835,-5.689 -1.67,-8.717c-0.835,-2.923 -2.349,-9.552 -2.505,-10.492c0.678,-1.096 1.357,-2.192 1.931,-3.34c0.992,-1.357 2.349,-2.767 4.019,-3.445c2.506,-1.096 6.473,-3.445 6.473,-3.445c1.305,-2.036 1.305,-3.445 1.2,-5.899Z"/>
<path id="Gray" fill="#c1c6c8" d="M75.358,163.747l-0.991,-0.991l0.678,-1.932l0.835,2.349l-0.522,0.574Zm-27.56,-0.156l-0.94,-1.096l0.679,-1.775l0.835,2.349l-0.574,0.522Zm31.945,-0.104l-0.94,-0.992l0.679,-1.932l0.835,2.349l-0.574,0.575Zm16.494,-0l-0.574,-0.575l0.679,-2.349l0.835,1.932l-0.94,0.992Zm7.047,-0l-0.992,-0.992l0.679,-1.932l0.835,2.349l-0.522,0.575Zm51.258,-0.157l-1.514,-0.261c-0.261,0.156 0.835,-2.767 0.835,-2.767c0,0.261 0.992,2.454 0.679,3.028Zm-114.052,-0.157l-0.417,-0.522l1.252,-2.088l0.261,1.932l-1.096,0.678Zm117.653,-0.104l-1.096,-0.261c-0.156,0.157 0.679,-2.088 0.679,-2.088c-0,0 0.574,1.618 0.417,2.349Zm-48.648,0l-1.096,-0.261c-0.156,0.157 0.679,-2.088 0.679,-2.088c-0,0 0.678,1.775 0.417,2.349Zm39.671,-0.157l-0.992,-0.261c-0.157,0.157 0.678,-1.774 0.678,-1.774c0,-0 0.47,1.461 0.314,2.035Zm-96.514,-0.261l-1.252,-0.417l0.835,-1.932l0.417,2.349Zm71.125,-140.304c0.314,0.031 2.898,0.294 5.345,0.833c0.991,0.26 1.096,2.766 -0.157,5.793c2.506,-2.505 8.978,-6.107 13.258,-4.436c1.096,0.417 2.349,0.991 3.341,1.252c2.088,-0.261 8.038,0.679 12.162,3.028c0.574,0.261 1.096,0.574 1.357,0.678c0.157,0.157 0.261,0.157 0.418,0.261c0.156,0.157 0.261,0.157 0.261,0.157c-0,-0 -0.418,1.096 -0.418,1.67c-0.574,0.261 -1.931,0 -2.61,-0.156c-2.088,-0.836 -9.552,-4.542 -9.552,-4.542l2.088,1.671c2.505,1.67 -0.835,3.34 -6.629,3.027c-4.855,-0.261 -8.143,3.863 -8.3,8.874c1.097,-1.357 0.992,-1.671 1.775,-2.349c0.574,0.835 2.923,1.096 3.863,1.357c-0.574,1.357 -1.931,4.124 -1.671,7.882c0.679,-1.775 1.253,-3.027 1.671,-4.124c2.349,-5.533 2.766,-0.991 2.923,0.575c0.574,-3.602 1.514,-6.212 2.766,-8.143c0.069,-0.069 0.127,-0.157 0.185,-0.248l0.049,-0.078c0.057,-0.091 0.115,-0.18 0.184,-0.249c1.357,-1.774 2.923,-2.766 4.28,-3.027c0.418,-0.157 0.835,-0.261 1.357,-0.261c-0.156,0 -0.156,0.157 -0.261,0.157l0.418,-0c-2.088,0.991 -3.341,2.087 -4.019,2.923c-0.261,0.417 -0.679,0.991 -0.992,1.67l-0,0.313c-0.157,0.261 -0.157,0.418 -0.261,0.574c-0,0.157 -0.157,0.261 -0.157,0.418c0.261,-0.261 0.574,-0.679 0.992,-0.992c0.835,-0.835 1.931,-1.514 3.184,-2.192c1.096,-0.574 2.088,-1.096 3.028,-1.357c2.088,-0.574 3.862,-0.157 4.958,0.261c0.157,0.156 0.575,0.261 0.575,0.417c0.156,0.157 0.156,0.418 -0.262,0.261c-0.991,-0.261 -3.027,-0.574 -5.376,0.261c1.67,3.863 -4.698,1.932 -5.115,9.552c1.357,-5.532 4.698,-5.689 7.308,-6.629c-0,0 0.156,0 0.156,-0.156c0.992,-0 1.931,-0 2.767,0.156c0.156,0 0.26,0 0.417,0.157l0.157,-0c3.027,0.835 3.34,3.184 2.505,5.115c-1.253,0.574 -2.192,1.357 -2.923,1.932c-2.088,5.95 -0.417,16.859 -10.387,18.686c-7.882,1.358 -13.989,-0.574 -18.948,-3.027c1.514,3.027 4.541,5.95 5.951,7.203c1.931,0.574 8.142,0.418 10.074,0.157c5.272,-0.574 12.84,-5.377 13.258,-11.066c0.418,-4.854 0.835,-10.909 0.835,-10.909c0,-0 1.931,-1.253 3.863,-1.775c0.156,-0 2.61,0.678 2.61,0.678l-0,0.157c0.26,0.574 0.991,2.923 0.678,5.115c0.365,1.88 -0.418,6.316 -1.983,8.509c-0.418,0.417 -8.143,12.005 -24.899,12.736c2.088,2.088 4.437,3.34 6.107,4.28c-2.505,0.418 -9.813,-1.096 -13.988,-1.514c9.813,5.116 14.51,11.327 16.598,13.989c0.261,0.261 0.575,0.574 0.679,0.679c0,-0 0,0.156 0.156,0.156l7.621,-11.065c0.574,1.357 3.028,9.552 3.863,12.422c-0.835,7.621 -5.533,19.627 -15.92,26.152c0.678,-0.992 1.774,-3.445 1.253,-6.473c-6.89,7.308 -18.792,11.223 -27.352,13.415c-0.261,-0 9.813,-14.25 11.066,-19.783c-6.473,4.28 -15.503,8.299 -15.607,8.299c-2.193,0.261 -6.786,15.764 -8.874,21.871c-0.835,2.349 -1.357,8.3 -2.505,11.327c0.835,0 1.357,-0.157 1.67,-0.157l1.096,-0.261c-0.157,1.932 -5.533,8.143 -5.533,8.143l6.107,0.418l2.349,3.602l0.418,3.183l-1.931,2.767c-0.836,-0.157 -3.185,-0.261 -3.185,-0.261l-1.096,-6.212l0,3.446l-1.67,2.923l-3.445,-0l-0.835,-7.047l-1.253,4.124l-1.514,3.027l-4.959,-0.574l0.679,-5.69c0,0 2.61,-4.958 2.192,-8.299c-0.574,-6.212 0.157,-36.382 0,-42.593l-6.211,15.502c-2.088,0.679 -22.81,-12.997 -22.81,-12.997c0.417,9.657 6.785,30.014 -12.841,31.684l-1.931,13.989l2.766,1.514c0,-0 0.992,2.923 0.992,4.28l-1.357,2.61l-1.932,0.417l-1.357,-5.115l-1.096,5.376l-4.019,-0.261l-0.574,-3.027l-1.671,2.766l-4.697,-0.417c0.261,-1.932 2.766,-5.951 3.027,-7.621c0.679,-3.028 1.67,-6.89 1.67,-6.89c0,-0 6.212,-9.813 6.212,-9.657c-0,0 1.253,0.418 2.923,0.261c-4.541,-11.483 2.61,-13.414 3.758,-19.208c0.835,-4.124 -0.574,-10.231 1.253,-14.094c1.253,-2.766 7.725,-14.25 10.492,-15.607c1.931,-0.835 3.445,-1.252 3.445,-1.252c2.923,-0.679 20.044,-7.882 22.81,-9.396c-0.156,2.766 -0.156,6.89 2.506,10.648c3.34,-12.423 8.456,-22.132 12.423,-26.151c1.931,2.192 6.211,2.767 6.211,2.767c-2.088,-5.69 0,-14.094 2.61,-17.539c0.157,-0.261 0.418,-0.574 0.679,-0.835c1.357,5.272 5.272,15.346 14.51,18.53c-11.065,-8.456 -9.813,-24.324 -5.376,-30.431c-1.253,0.679 -2.505,2.088 -4.019,2.61c1.67,-5.951 4.28,-11.327 3.862,-11.066c-2.505,1.931 -5.376,7.308 -7.307,11.64c-0.574,-0.678 -1.357,-1.357 -1.514,-1.67c-1.775,-2.349 -3.341,-5.69 -3.341,-5.69l3.028,-1.253l-0.157,3.185c1.775,-1.358 8.3,-10.492 8.717,-10.649l0.032,0.003Zm-41.111,136.39l-0.992,2.923l-1.096,-0l-1.253,-3.341l-1.253,3.602l-1.67,0.156l-1.357,-4.124l-0.992,4.281l-8.56,-1.253c-0,-0 2.192,-5.951 2.923,-7.464c1.357,-3.028 9.97,-8.561 12.997,-12.006c-0.261,2.923 -4.123,6.212 -4.019,7.465c0.156,1.096 3.758,2.766 4.28,4.697c0.418,1.932 0.992,5.064 0.992,5.064Zm0.835,3.34l-1.096,-0.417l0.678,-1.932l0.418,2.349Zm65.403,-14.667c0.418,1.096 1.671,3.758 1.671,3.758c1.357,0.992 6.472,3.862 6.472,3.862l0.418,4.02l-1.253,2.923l-1.096,-0.261l-0.418,-4.855l-3.34,-1.357l2.349,1.671l-0.157,1.774l-1.357,3.028l-2.61,-0.418l0.418,-5.115c-0,-0 -2.61,-2.088 -3.445,-2.088l2.505,2.505l-0.157,2.088c-0.991,1.671 -1.252,2.349 -1.67,3.028l-7.621,-0.418c0,0 1.671,-6.89 2.193,-10.805c-0,0 -1.514,0.679 -2.193,0.992c0.679,-2.349 1.671,-6.472 2.61,-8.978l-2.505,0.992c0.991,-4.541 2.61,-8.143 4.123,-13.415c3.028,-2.61 8.3,-8.717 12.737,-12.736c0.052,6.577 -6.838,23.332 -7.674,29.805Zm-83.411,-60.549c-0,-0 -3.184,1.096 -4.855,1.774c-0.417,-0.417 -0.835,-0.678 -2.087,-0.991c1.722,-0.523 6.942,-0.783 6.942,-0.783Zm104.395,-27.248c-0.835,0.418 -1.931,0.992 -3.027,1.253c0.574,-1.096 0.991,-1.67 0.991,-1.67c1.671,-3.028 1.775,-10.492 -0.574,-15.503c0,0 -1.67,-1.096 -2.61,-1.514c-0.835,-1.774 -0.261,-4.123 -2.61,-5.115c-0.574,-0.261 -0.992,-0.835 -1.252,-1.357c-0.575,-1.096 1.096,-0.574 2.087,0.678l0.157,0.157c0,0.157 0.157,0.157 0.157,0.261c-0,0.104 0.156,0.157 0.156,0.261c0.574,0.835 1.097,1.514 1.671,2.088c0.574,0.678 1.252,1.357 1.774,2.088l0.157,0.156c-0,0 -0,0.157 0.156,0.157c0,-0 0,0.157 0.157,0.157c0.157,0.156 0.261,0.417 0.418,0.574c-0,0.156 0.156,0.156 0.156,0.261c0.261,0.417 0.418,0.835 0.679,1.253c1.253,2.923 2.766,6.368 2.766,9.552c-0.261,4.071 -0.678,5.011 -1.409,6.263Zm-27.612,-0.261c-0.575,-0.417 -2.349,-2.505 -1.253,-6.472c0.678,-2.192 2.61,-5.115 2.349,-8.038c-1.096,4.541 -2.088,4.123 -4.281,7.62c-1.096,1.931 -2.192,4.698 -1.357,5.951c0.522,0.522 2.975,0.939 4.542,0.939Zm18.53,-12.318c-0,1.67 -0,2.61 0.417,4.28c0.418,-1.931 2.923,-4.541 4.437,-4.698c0.156,-0.418 0.156,-0.992 0.156,-0.992c-1.304,-0.522 -2.818,0.053 -5.01,1.41Z"/>
<path id="White" fill="#fff" d="M51.4,158.893l-1.514,-3.288l-0.418,4.802l0.992,1.096l0.94,-2.61Zm-5.534,2.245l0.992,-3.602l0.679,-6.786l-2.767,8.404l1.096,1.984Zm35.704,-0.314l-0.261,-1.513l-4.019,-9.396l3.027,2.61c0.574,0.574 0.992,1.096 1.096,1.931l0.835,3.028l-0.678,3.34Zm24.741,-7.464l2.088,3.341l0,3.027l-0.992,-1.253l-1.096,-5.115Zm-3.758,3.184l0,3.028l-1.096,-1.201l-1.096,-5.115l2.192,3.288Zm-7.986,1.514l1.096,1.096l1.514,-3.706l-0.835,-2.505l-1.775,5.115Zm53.92,-1.253l-0,1.932l-1.096,-1.097l-2.245,-4.123l3.341,3.288Zm4.541,0l0,1.932l-1.096,-1.097l-4.124,-3.706l5.22,2.871Zm-2.088,-2.61l4.75,2.088l1.357,1.932l0,-3.341l-6.368,-3.027l0.261,2.348Zm-46.716,-18.791l7.725,-23.802l-9.5,5.951l-3.863,34.972l7.203,-8.038c-0.574,0.156 -0.678,0.261 -1.096,0.261l-1.931,0.574l1.462,-9.918Zm43.167,12.58l1.096,-0.418l7.464,-27.665l-7.36,8.3l-1.2,19.783Zm-88.527,-19.366c-1.357,3.759 -7.047,7.465 -8.456,8.039c4.28,0.679 10.387,-1.357 11.327,-5.533c1.252,-5.115 0.991,-18.53 0.991,-18.53c0,-0 -1.513,9.395 -3.862,16.024Zm98.027,-50.892c-2.61,4.28 -5.377,8.456 -7.621,11.066l0,0.156c-0.157,-0.261 -0.418,-0.574 -0.835,-0.991c-7.308,-7.047 -27.091,-14.929 -27.091,-14.929c0,0 15.085,12.58 17.956,25.159c1.671,7.047 -6.629,16.025 -8.56,18.269c7.203,-2.505 18.112,-11.744 21.296,-14.51c0,1.513 -0.261,2.923 -0.835,4.28c6.473,-4.698 9.396,-16.025 9.396,-16.025l-3.706,-12.475Zm-58.201,-2.61c-5.793,11.066 -4.958,23.906 -4.958,23.906c-0,0 3.027,-14.25 11.327,-24.219c4.541,-5.533 7.464,-4.437 10.387,-4.28c-7.621,-3.759 -10.387,-5.533 -10.387,-5.533c-0,-0 -4.02,5.533 -6.369,10.126Zm16.599,-20.723c-2.505,4.959 -2.348,12.58 1.932,14.668c5.376,2.61 21.035,4.959 21.035,4.959c0,-0 -10.074,-3.602 -16.86,-7.882c-3.758,-2.349 -5.95,-9.97 -6.107,-11.745Zm44.942,-8.716l4.02,-0.575l1.774,0.261l-0.156,1.775c-0,0 -0.574,0.261 -2.923,3.602c-0.835,1.096 -0.992,2.61 -0.679,4.019c2.349,0.835 2.61,0.835 2.349,3.184c0.574,-0.156 0.992,-1.253 1.253,-2.505c0.835,-2.61 1.357,-4.959 1.357,-6.63c-0,-2.505 -0.574,-4.123 -0.574,-4.123l-2.61,-0.574l-3.811,1.566Zm5.116,-5.69l-0.261,-0.261c-0.679,-0.835 -1.357,-1.67 -1.931,-2.61c-0.157,-0.156 -0.262,-0.261 -0.262,-0.574c-0.991,-1.253 -2.766,-1.931 -2.192,-0.835c0.261,0.574 1.096,1.096 1.514,1.357c2.192,0.992 1.931,3.027 2.766,4.854l2.506,1.514c2.349,4.855 3.445,13.832 3.445,9.97c-0.157,-3.184 -1.514,-6.629 -2.767,-9.552c-0.156,-0.418 -0.417,-0.835 -0.574,-1.097c0,-0.156 -0.156,-0.156 -0.156,-0.26c-0.157,-0.261 -0.261,-0.418 -0.418,-0.575c-0.156,-0.156 -0.261,-0.261 -0.261,-0.417c-0.574,-0.679 -0.992,-1.096 -1.409,-1.514Zm-11.484,-1.931c-2.349,1.096 -3.601,2.923 -4.28,4.697c1.357,-0.678 2.088,-0.835 2.506,-0.678c-0.992,1.096 -1.253,3.341 -1.253,3.341c4.019,-3.445 4.437,4.958 5.794,7.203c0.574,-4.854 0.678,-5.951 2.349,-8.561l-0,-0.156c0.835,-0.574 1.357,-1.253 3.184,-1.514c1.096,-2.923 -0.261,-4.541 -2.506,-5.115l-0.156,-0c-0.157,-0 -0.261,-0 -0.418,-0.157c-0.835,-0.156 -1.67,-0.261 -2.766,-0.156l-0.157,-0c-0.157,0.156 -0.417,0.261 -0.679,0.417c-0.521,0.261 -1.043,0.418 -1.618,0.679Zm-7.62,1.514c-0.262,0.835 -0.679,2.505 -0.679,2.505c1.253,-2.192 4.854,-5.533 8.038,-6.472c0.679,-0.262 -0.156,-1.514 0,-1.514c2.193,-0.679 3.759,-0.835 5.69,-0.261c0.574,0.156 -0.157,-0.574 -0.261,-0.679c-2.088,-0.835 -4.437,-0.417 -5.533,-0.156c-0.992,0.261 -1.775,0.678 -2.61,1.096c-1.253,0.678 -2.349,1.514 -3.184,2.192l-1.148,1.148c0.156,-0.156 0.156,-0.261 0.156,-0.574c0.157,-0.261 0.157,-0.417 0.261,-0.574l0,-0.313c0.261,-0.418 0.575,-0.992 0.992,-1.67c1.357,-1.932 2.61,-2.506 3.602,-2.923c-0.261,-0 -0.679,0.156 -0.992,0.156c-1.775,0.574 -3.445,2.088 -4.28,3.027c-0.157,0.157 -0.261,0.418 -0.418,0.679c-0.678,1.253 -1.253,2.766 -1.67,4.28c1.096,-1.305 2.453,-1.044 2.036,0.053Zm-4.542,-1.932c-1.513,0.157 -3.027,-0.835 -3.445,-2.088c0.418,-0.835 0.835,-1.252 1.357,-1.514c-0.156,0.262 -0.156,0.575 -0.156,0.836c0.052,1.513 0.992,2.61 2.244,2.766Zm-24.48,-0.574c-0,-0 5.376,-11.64 8.038,-11.64l0,1.931c0,1.253 -1.096,6.368 -1.096,6.368l4.437,-4.437c0.574,-0.835 1.357,-3.183 1.252,-4.019l-0.156,-0.626c-0.157,-0.835 -0.679,-1.357 -1.514,-1.514l-4.437,-0.835l-7.203,10.074l0.679,4.698Zm25.837,-3.706c0.231,-0 0.418,0.187 0.418,0.418c0,0.23 -0.187,0.417 -0.418,0.417c-0.23,0 -0.417,-0.187 -0.417,-0.417c-0,-0.231 0.187,-0.418 0.417,-0.418Zm-4.28,-2.349c3.184,-1.357 6.629,-0.418 9.239,-0.261c0.418,0 2.192,-0.261 2.192,-0.678c0.157,-0.262 0.262,-0.575 0,-0.836c-0.156,-0.156 -0.156,-0.156 -0.261,-0.261c-0.417,-0.261 -0.678,-0.678 -1.096,-0.991c-6.107,-4.437 -11.066,-3.759 -12.736,-2.61c-6.211,4.123 -7.307,7.464 -7.307,7.464c0.887,-1.148 13.467,-6.786 9.969,-1.827Zm7.36,-5.115c1.775,0.574 3.863,1.514 6.89,3.027c2.088,0.992 4.855,2.506 6.212,2.506l0.835,-1.514c-0.157,-0 -0.261,-0.157 -0.418,-0.261c-0.417,-0.157 -0.991,-0.418 -1.252,-0.574l-0.157,-0.157c-1.096,-0.574 -2.505,-1.253 -4.437,-1.931c-3.132,-1.096 -6.577,-1.357 -7.673,-1.096Z"/></svg>